<svg version="1.2" baseProfile="tiny-ps" xmlns="http://www.w3.org/2000/svg" viewBox="0 0 190 30" width="190" height="30">
	<title>logo_ana</title>
	<style>
		tspan { white-space:pre }
		.shp0 { fill: #000000 } 
		.shp1 { fill: #fdd93d } 
	</style>
	<path id="Ana Blanco" fill-rule="evenodd" class=" shp0" d="M17.06 28L14.99 22.27L7.03 22.27L5.07 28L0 28L9.32 1.92L13.06 1.92L22.39 28L17.06 28ZM10.21 12.46L8.33 18.2L13.88 18.2L11.95 12.42L11.17 8.35L10.99 8.35L10.21 12.46ZM40.63 28L35.82 28L35.82 17.49C35.82 15.99 35.59 14.9 35.15 14.24C34.73 13.57 34 13.24 32.97 13.24C32.05 13.24 31.28 13.51 30.64 14.05C30.02 14.57 29.58 15.22 29.3 16.01L29.3 28L24.49 28L24.49 9.5L28.3 9.5L28.86 11.94L29.01 11.94C29.58 11.15 30.33 10.46 31.26 9.87C32.2 9.28 33.41 8.98 34.89 8.98C35.8 8.98 36.62 9.11 37.33 9.35C38.05 9.6 38.65 10.01 39.15 10.57C39.64 11.14 40.01 11.92 40.26 12.9C40.5 13.87 40.63 15.06 40.63 16.49L40.63 28ZM45.7 14.16L44.55 10.57C45.53 10.13 46.71 9.78 48.06 9.54C49.42 9.27 50.84 9.13 52.32 9.13C53.6 9.13 54.67 9.29 55.54 9.61C56.4 9.91 57.08 10.34 57.57 10.91C58.09 11.47 58.45 12.15 58.64 12.94C58.87 13.73 58.98 14.62 58.98 15.61C58.98 16.69 58.94 17.79 58.87 18.9C58.79 19.98 58.74 21.06 58.72 22.12C58.72 23.18 58.76 24.21 58.83 25.23C58.9 26.21 59.09 27.15 59.38 28.04L55.46 28.04L54.69 25.48L54.5 25.48C54.01 26.25 53.32 26.91 52.43 27.48C51.57 28.02 50.44 28.3 49.06 28.3C48.2 28.3 47.42 28.17 46.73 27.93C46.04 27.65 45.45 27.28 44.95 26.82C44.46 26.32 44.08 25.76 43.81 25.11C43.54 24.45 43.4 23.71 43.4 22.89C43.4 21.76 43.65 20.81 44.14 20.05C44.66 19.26 45.39 18.63 46.32 18.16C47.29 17.66 48.42 17.33 49.73 17.16C51.06 16.96 52.54 16.9 54.17 16.97C54.34 15.59 54.24 14.61 53.87 14.01C53.5 13.4 52.68 13.09 51.39 13.09C50.43 13.09 49.41 13.19 48.32 13.39C47.26 13.58 46.39 13.84 45.7 14.16ZM50.65 24.34C51.61 24.34 52.38 24.13 52.95 23.71C53.51 23.26 53.93 22.8 54.2 22.3L54.2 19.9C53.44 19.82 52.7 19.81 51.98 19.86C51.29 19.91 50.68 20.02 50.13 20.19C49.59 20.37 49.16 20.61 48.84 20.93C48.52 21.25 48.36 21.66 48.36 22.15C48.36 22.84 48.56 23.39 48.95 23.78C49.37 24.15 49.94 24.34 50.65 24.34ZM89.91 8.13C89.91 8.77 89.82 9.41 89.65 10.05C89.5 10.7 89.24 11.29 88.87 11.83C88.5 12.35 88.02 12.82 87.43 13.24C86.84 13.63 86.12 13.93 85.28 14.13L85.28 14.35C86.03 14.47 86.73 14.68 87.39 14.98C88.06 15.27 88.64 15.68 89.13 16.2C89.63 16.71 90.01 17.34 90.28 18.08C90.58 18.82 90.72 19.7 90.72 20.71C90.72 22.04 90.44 23.2 89.87 24.19C89.31 25.15 88.54 25.94 87.58 26.56C86.64 27.17 85.57 27.63 84.36 27.93C83.15 28.22 81.91 28.37 80.62 28.37C80.2 28.37 79.66 28.37 79 28.37C78.35 28.37 77.65 28.36 76.89 28.33C76.15 28.28 75.38 28.22 74.59 28.15C73.83 28.07 73.12 27.96 72.48 27.82L72.48 2.29C72.95 2.21 73.48 2.14 74.07 2.06C74.69 1.99 75.34 1.93 76.03 1.88C76.73 1.83 77.43 1.79 78.14 1.77C78.88 1.74 79.61 1.73 80.33 1.73C81.54 1.73 82.71 1.83 83.84 2.03C85 2.2 86.02 2.52 86.91 2.99C87.83 3.46 88.55 4.11 89.1 4.95C89.64 5.79 89.91 6.85 89.91 8.13ZM80.66 24.19C81.28 24.19 81.87 24.11 82.44 23.97C83.03 23.82 83.55 23.6 83.99 23.3C84.43 22.98 84.79 22.59 85.06 22.12C85.33 21.65 85.47 21.09 85.47 20.45C85.47 19.64 85.31 19 84.99 18.53C84.67 18.06 84.25 17.7 83.73 17.45C83.21 17.18 82.63 17.01 81.99 16.94C81.35 16.86 80.71 16.83 80.07 16.83L77.37 16.83L77.37 23.97C77.49 24.02 77.69 24.05 77.96 24.08C78.23 24.1 78.51 24.13 78.81 24.15C79.13 24.15 79.45 24.16 79.77 24.19C80.12 24.19 80.41 24.19 80.66 24.19ZM77.37 12.98L79 12.98C79.34 12.98 79.73 12.97 80.18 12.94C80.65 12.92 81.03 12.88 81.33 12.83C82.26 12.53 83.06 12.09 83.73 11.5C84.42 10.91 84.77 10.13 84.77 9.17C84.77 8.53 84.64 8 84.4 7.58C84.15 7.16 83.82 6.82 83.4 6.58C83 6.33 82.55 6.16 82.03 6.06C81.51 5.96 80.97 5.91 80.4 5.91C79.76 5.91 79.17 5.92 78.63 5.95C78.08 5.97 77.66 6.01 77.37 6.06L77.37 12.98ZM99.2 2.1L99.2 21.78C99.2 22.65 99.31 23.28 99.53 23.67C99.75 24.07 100.11 24.26 100.6 24.26C100.9 24.26 101.18 24.24 101.45 24.19C101.75 24.14 102.11 24.03 102.53 23.86L103.04 27.63C102.65 27.83 102.05 28.02 101.23 28.22C100.42 28.42 99.58 28.52 98.72 28.52C97.31 28.52 96.24 28.2 95.5 27.56C94.76 26.89 94.39 25.8 94.39 24.3L94.39 2.1L99.2 2.1ZM106.15 14.16L105.01 10.57C105.99 10.13 107.16 9.78 108.52 9.54C109.88 9.27 111.3 9.13 112.78 9.13C114.06 9.13 115.13 9.29 115.99 9.61C116.86 9.91 117.54 10.34 118.03 10.91C118.55 11.47 118.91 12.15 119.1 12.94C119.32 13.73 119.44 14.62 119.44 15.61C119.44 16.69 119.4 17.79 119.32 18.9C119.25 19.98 119.2 21.06 119.18 22.12C119.18 23.18 119.21 24.21 119.29 25.23C119.36 26.21 119.55 27.15 119.84 28.04L115.92 28.04L115.14 25.48L114.96 25.48C114.47 26.25 113.77 26.91 112.89 27.48C112.02 28.02 110.9 28.3 109.52 28.3C108.66 28.3 107.88 28.17 107.19 27.93C106.5 27.65 105.91 27.28 105.41 26.82C104.92 26.32 104.54 25.76 104.27 25.11C103.99 24.45 103.86 23.71 103.86 22.89C103.86 21.76 104.11 20.81 104.6 20.05C105.12 19.26 105.84 18.63 106.78 18.16C107.74 17.66 108.88 17.33 110.19 17.16C111.52 16.96 113 16.9 114.63 16.97C114.8 15.59 114.7 14.61 114.33 14.01C113.96 13.4 113.13 13.09 111.85 13.09C110.89 13.09 109.87 13.19 108.78 13.39C107.72 13.58 106.84 13.84 106.15 14.16ZM111.11 24.34C112.07 24.34 112.84 24.13 113.41 23.71C113.97 23.26 114.39 22.8 114.66 22.3L114.66 19.9C113.9 19.82 113.16 19.81 112.44 19.86C111.75 19.91 111.14 20.02 110.59 20.19C110.05 20.37 109.62 20.61 109.3 20.93C108.98 21.25 108.82 21.66 108.82 22.15C108.82 22.84 109.01 23.39 109.41 23.78C109.83 24.15 110.4 24.34 111.11 24.34ZM139.6 28L134.79 28L134.79 17.49C134.79 15.99 134.57 14.9 134.12 14.24C133.71 13.57 132.98 13.24 131.94 13.24C131.03 13.24 130.25 13.51 129.61 14.05C128.99 14.57 128.55 15.22 128.28 16.01L128.28 28L123.47 28L123.47 9.5L127.28 9.5L127.83 11.94L127.98 11.94C128.55 11.15 129.3 10.46 130.24 9.87C131.18 9.28 132.39 8.98 133.87 8.98C134.78 8.98 135.59 9.11 136.31 9.35C137.02 9.6 137.63 10.01 138.12 10.57C138.61 11.14 138.98 11.92 139.23 12.9C139.48 13.87 139.6 15.06 139.6 16.49L139.6 28ZM155.62 23.19L156.73 26.85C155.99 27.4 155.09 27.82 154.03 28.11C152.99 28.38 151.92 28.52 150.81 28.52C149.33 28.52 148.07 28.28 147.04 27.82C146.03 27.35 145.2 26.69 144.56 25.85C143.92 24.99 143.45 23.95 143.15 22.75C142.88 21.54 142.75 20.21 142.75 18.75C142.75 15.62 143.45 13.21 144.85 11.54C146.26 9.83 148.31 8.98 151 8.98C152.35 8.98 153.44 9.09 154.25 9.32C155.09 9.54 155.84 9.82 156.51 10.17L155.36 14.09C154.8 13.82 154.23 13.61 153.66 13.46C153.12 13.31 152.49 13.24 151.77 13.24C150.44 13.24 149.43 13.68 148.74 14.57C148.05 15.43 147.7 16.83 147.7 18.75C147.7 19.54 147.79 20.27 147.96 20.93C148.14 21.6 148.39 22.18 148.74 22.67C149.09 23.17 149.53 23.56 150.07 23.86C150.64 24.13 151.29 24.26 152.03 24.26C152.85 24.26 153.54 24.16 154.1 23.97C154.67 23.75 155.18 23.49 155.62 23.19ZM158.14 18.75C158.14 15.62 158.9 13.21 160.43 11.54C161.96 9.83 164.11 8.98 166.87 8.98C168.35 8.98 169.63 9.22 170.72 9.69C171.8 10.15 172.7 10.82 173.42 11.68C174.13 12.52 174.66 13.55 175.01 14.75C175.38 15.96 175.56 17.29 175.56 18.75C175.56 21.88 174.8 24.3 173.27 26C171.77 27.68 169.63 28.52 166.87 28.52C165.39 28.52 164.11 28.28 163.02 27.82C161.94 27.35 161.02 26.69 160.28 25.85C159.57 24.99 159.03 23.95 158.66 22.75C158.31 21.54 158.14 20.21 158.14 18.75ZM163.1 18.75C163.1 19.56 163.17 20.32 163.32 21.01C163.47 21.7 163.69 22.3 163.98 22.82C164.28 23.34 164.66 23.75 165.13 24.04C165.62 24.31 166.2 24.45 166.87 24.45C168.13 24.45 169.07 23.99 169.68 23.08C170.3 22.17 170.61 20.72 170.61 18.75C170.61 17.05 170.32 15.68 169.76 14.64C169.19 13.58 168.23 13.05 166.87 13.05C165.69 13.05 164.76 13.5 164.09 14.38C163.43 15.27 163.1 16.73 163.1 18.75Z" />
	<path id="Ana Blanco" class=" shp1" d="M179 23.44C179 21.92 179.48 20.72 180.44 19.84C181.4 18.93 182.67 18.47 184.24 18.47C185.9 18.47 187.2 18.93 188.16 19.84C189.12 20.72 189.6 21.92 189.6 23.44C189.6 24.97 189.12 26.19 188.16 27.11C187.2 28.03 185.9 28.48 184.24 28.48C182.67 28.48 181.4 28.03 180.44 27.11C179.48 26.19 179 24.97 179 23.44Z" />
</svg>