<svg version="1.2" baseProfile="tiny-ps" xmlns="http://www.w3.org/2000/svg" viewBox="0 0 190 34" width="190" height="34">
	<title>logo_ana</title>
	<style>
		tspan { white-space:pre }
	</style>
	<path id="Ana Blanco." fill="#000000" aria-label="Ana Blanco."  d="M20.06 30L17.99 24.27L10.03 24.27L8.07 30L3 30L12.32 3.92L16.06 3.92L25.39 30L20.06 30ZM13.21 14.46L11.33 20.2L16.88 20.2L14.95 14.42L14.17 10.35L13.99 10.35L13.21 14.46ZM43.63 30L38.82 30L38.82 19.49Q38.82 17.23 38.15 16.24Q37.52 15.24 35.97 15.24Q34.6 15.24 33.64 16.05Q32.71 16.83 32.3 18.01L32.3 30L27.49 30L27.49 11.5L31.3 11.5L31.86 13.94L32.01 13.94Q32.86 12.76 34.27 11.87Q35.67 10.98 37.89 10.98Q39.26 10.98 40.33 11.35Q41.41 11.72 42.15 12.57Q42.89 13.42 43.26 14.9Q43.63 16.35 43.63 18.49L43.63 30ZM48.7 16.16L47.55 12.57Q49.03 11.91 51.06 11.54Q53.1 11.13 55.32 11.13Q57.24 11.13 58.54 11.61Q59.83 12.05 60.57 12.91Q61.35 13.76 61.64 14.94Q61.98 16.13 61.98 17.61Q61.98 19.23 61.87 20.9Q61.76 22.53 61.72 24.12Q61.72 25.71 61.83 27.23Q61.94 28.7 62.38 30.04L58.46 30.04L57.69 27.48L57.5 27.48Q56.76 28.63 55.43 29.48Q54.13 30.3 52.06 30.3Q50.77 30.3 49.73 29.93Q48.7 29.52 47.95 28.82Q47.21 28.08 46.81 27.11Q46.4 26.12 46.4 24.89Q46.4 23.19 47.14 22.05Q47.92 20.86 49.32 20.16Q50.77 19.42 52.73 19.16Q54.73 18.86 57.17 18.97Q57.43 16.9 56.87 16.01Q56.32 15.09 54.39 15.09Q52.95 15.09 51.32 15.39Q49.73 15.68 48.7 16.16ZM53.65 26.34Q55.1 26.34 55.95 25.71Q56.8 25.04 57.2 24.3L57.2 21.9Q56.06 21.79 54.98 21.86Q53.95 21.93 53.13 22.19Q52.32 22.45 51.84 22.93Q51.36 23.41 51.36 24.15Q51.36 25.19 51.95 25.78Q52.58 26.34 53.65 26.34ZM92.91 10.13Q92.91 11.09 92.65 12.05Q92.43 13.02 91.87 13.83Q91.32 14.61 90.43 15.24Q89.54 15.83 88.28 16.13L88.28 16.35Q89.4 16.53 90.39 16.98Q91.39 17.42 92.13 18.2Q92.87 18.97 93.28 20.08Q93.72 21.19 93.72 22.71Q93.72 24.71 92.87 26.19Q92.02 27.63 90.58 28.56Q89.17 29.48 87.36 29.93Q85.55 30.37 83.62 30.37Q82.99 30.37 82 30.37Q81.03 30.37 79.89 30.33Q78.78 30.26 77.59 30.15Q76.44 30.04 75.48 29.82L75.48 4.29Q76.19 4.17 77.07 4.06Q78 3.95 79.03 3.88Q80.07 3.8 81.14 3.77Q82.25 3.73 83.33 3.73Q85.14 3.73 86.84 4.03Q88.58 4.29 89.91 4.99Q91.28 5.69 92.1 6.95Q92.91 8.21 92.91 10.13ZM83.66 26.19Q84.59 26.19 85.44 25.97Q86.32 25.75 86.99 25.3Q87.66 24.82 88.06 24.12Q88.47 23.41 88.47 22.45Q88.47 21.23 87.99 20.53Q87.51 19.83 86.73 19.45Q85.95 19.05 84.99 18.94Q84.03 18.83 83.07 18.83L80.37 18.83L80.37 25.97Q80.55 26.04 80.96 26.08Q81.37 26.12 81.81 26.15Q82.29 26.15 82.77 26.19Q83.29 26.19 83.66 26.19ZM80.37 14.98L82 14.98Q82.51 14.98 83.18 14.94Q83.88 14.9 84.33 14.83Q85.73 14.39 86.73 13.5Q87.77 12.61 87.77 11.17Q87.77 10.21 87.4 9.58Q87.03 8.95 86.4 8.58Q85.81 8.21 85.03 8.06Q84.25 7.91 83.4 7.91Q82.44 7.91 81.63 7.95Q80.81 7.98 80.37 8.06L80.37 14.98ZM102.2 4.1L102.2 23.78Q102.2 25.08 102.53 25.67Q102.86 26.26 103.6 26.26Q104.05 26.26 104.45 26.19Q104.9 26.12 105.53 25.86L106.04 29.63Q105.45 29.93 104.23 30.22Q103.01 30.52 101.72 30.52Q99.61 30.52 98.5 29.56Q97.39 28.56 97.39 26.3L97.39 4.1L102.2 4.1ZM109.15 16.16L108.01 12.57Q109.49 11.91 111.52 11.54Q113.56 11.13 115.78 11.13Q117.7 11.13 118.99 11.61Q120.29 12.05 121.03 12.91Q121.81 13.76 122.1 14.94Q122.44 16.13 122.44 17.61Q122.44 19.23 122.32 20.9Q122.21 22.53 122.18 24.12Q122.18 25.71 122.29 27.23Q122.4 28.7 122.84 30.04L118.92 30.04L118.14 27.48L117.96 27.48Q117.22 28.63 115.89 29.48Q114.59 30.3 112.52 30.3Q111.22 30.3 110.19 29.93Q109.15 29.52 108.41 28.82Q107.67 28.08 107.27 27.11Q106.86 26.12 106.86 24.89Q106.86 23.19 107.6 22.05Q108.38 20.86 109.78 20.16Q111.22 19.42 113.19 19.16Q115.18 18.86 117.63 18.97Q117.88 16.9 117.33 16.01Q116.77 15.09 114.85 15.09Q113.41 15.09 111.78 15.39Q110.19 15.68 109.15 16.16ZM114.11 26.34Q115.55 26.34 116.41 25.71Q117.26 25.04 117.66 24.3L117.66 21.9Q116.52 21.79 115.44 21.86Q114.41 21.93 113.59 22.19Q112.78 22.45 112.3 22.93Q111.82 23.41 111.82 24.15Q111.82 25.19 112.41 25.78Q113.04 26.34 114.11 26.34ZM142.6 30L137.79 30L137.79 19.49Q137.79 17.23 137.12 16.24Q136.5 15.24 134.94 15.24Q133.57 15.24 132.61 16.05Q131.69 16.83 131.28 18.01L131.28 30L126.47 30L126.47 11.5L130.28 11.5L130.83 13.94L130.98 13.94Q131.83 12.76 133.24 11.87Q134.65 10.98 136.87 10.98Q138.23 10.98 139.31 11.35Q140.38 11.72 141.12 12.57Q141.86 13.42 142.23 14.9Q142.6 16.35 142.6 18.49L142.6 30ZM158.62 25.19L159.73 28.85Q158.62 29.67 157.03 30.11Q155.48 30.52 153.81 30.52Q151.59 30.52 150.04 29.82Q148.52 29.11 147.56 27.85Q146.6 26.56 146.15 24.75Q145.75 22.93 145.75 20.75Q145.75 16.05 147.85 13.54Q149.96 10.98 154 10.98Q156.03 10.98 157.25 11.32Q158.51 11.65 159.51 12.17L158.36 16.09Q157.51 15.68 156.66 15.46Q155.85 15.24 154.77 15.24Q152.78 15.24 151.74 16.57Q150.7 17.86 150.7 20.75Q150.7 21.93 150.96 22.93Q151.22 23.93 151.74 24.67Q152.26 25.41 153.07 25.86Q153.92 26.26 155.03 26.26Q156.25 26.26 157.1 25.97Q157.96 25.63 158.62 25.19ZM161.14 20.75Q161.14 16.05 163.43 13.54Q165.73 10.98 169.87 10.98Q172.09 10.98 173.72 11.69Q175.35 12.39 176.42 13.68Q177.49 14.94 178.01 16.75Q178.56 18.57 178.56 20.75Q178.56 25.45 176.27 28Q174.01 30.52 169.87 30.52Q167.65 30.52 166.02 29.82Q164.39 29.11 163.28 27.85Q162.21 26.56 161.66 24.75Q161.14 22.93 161.14 20.75ZM166.1 20.75Q166.1 21.97 166.32 23.01Q166.54 24.04 166.98 24.82Q167.43 25.6 168.13 26.04Q168.87 26.45 169.87 26.45Q171.76 26.45 172.68 25.08Q173.61 23.71 173.61 20.75Q173.61 18.2 172.76 16.64Q171.9 15.05 169.87 15.05Q168.09 15.05 167.09 16.38Q166.1 17.72 166.1 20.75Z" />
	<path id="Ana Blanco." fill="#fdd93d" aria-label="Ana Blanco."  d="M180.97 27.56Q180.97 26.26 181.78 25.52Q182.6 24.75 183.93 24.75Q185.34 24.75 186.15 25.52Q186.96 26.26 186.96 27.56Q186.96 28.85 186.15 29.63Q185.34 30.41 183.93 30.41Q182.6 30.41 181.78 29.63Q180.97 28.85 180.97 27.56Z" />
</svg>