<svg version="1.2" baseProfile="tiny-ps" xmlns="http://www.w3.org/2000/svg" viewBox="0 0 196 34" width="196" height="34">
	<title>logo_ana</title>
	<style>
		tspan { white-space:pre }
		.shp0 { fill: #000000 } 
		.shp1 { fill: #fdd93d } 
	</style>
	<path id="Ana Blanco" fill-rule="evenodd" class=" shp0" d="M20.06 30L17.98 24.27L10.03 24.27L8.07 30L3 30L12.32 3.92L16.06 3.92L25.38 30L20.06 30ZM13.21 14.46L11.32 20.2L16.87 20.2L14.95 14.42L14.17 10.35L13.99 10.35L13.21 14.46ZM43.63 30L38.82 30L38.82 19.49C38.82 17.99 38.59 16.9 38.15 16.24C37.73 15.57 37 15.24 35.97 15.24C35.05 15.24 34.28 15.51 33.64 16.05C33.02 16.57 32.58 17.22 32.3 18.01L32.3 30L27.49 30L27.49 11.5L31.3 11.5L31.86 13.94L32.01 13.94C32.58 13.15 33.33 12.46 34.26 11.87C35.2 11.28 36.41 10.98 37.89 10.98C38.8 10.98 39.62 11.11 40.33 11.35C41.05 11.6 41.65 12.01 42.15 12.57C42.64 13.14 43.01 13.92 43.26 14.9C43.5 15.87 43.63 17.06 43.63 18.49L43.63 30ZM48.69 16.16L47.55 12.57C48.53 12.13 49.71 11.78 51.06 11.54C52.42 11.27 53.84 11.13 55.32 11.13C56.6 11.13 57.67 11.29 58.54 11.61C59.4 11.91 60.08 12.34 60.57 12.91C61.09 13.47 61.45 14.15 61.64 14.94C61.87 15.73 61.98 16.62 61.98 17.61C61.98 18.69 61.94 19.79 61.87 20.9C61.79 21.98 61.74 23.06 61.72 24.12C61.72 25.18 61.76 26.21 61.83 27.23C61.9 28.21 62.09 29.15 62.38 30.04L58.46 30.04L57.69 27.48L57.5 27.48C57.01 28.25 56.32 28.91 55.43 29.48C54.57 30.02 53.44 30.3 52.06 30.3C51.2 30.3 50.42 30.17 49.73 29.93C49.04 29.65 48.45 29.28 47.95 28.82C47.46 28.32 47.08 27.76 46.81 27.11C46.54 26.45 46.4 25.71 46.4 24.89C46.4 23.76 46.65 22.81 47.14 22.05C47.66 21.26 48.39 20.63 49.32 20.16C50.29 19.66 51.42 19.33 52.73 19.16C54.06 18.96 55.54 18.9 57.17 18.97C57.34 17.59 57.24 16.61 56.87 16.01C56.5 15.4 55.68 15.09 54.39 15.09C53.43 15.09 52.41 15.19 51.32 15.39C50.26 15.58 49.39 15.84 48.69 16.16ZM53.65 26.34C54.61 26.34 55.38 26.13 55.95 25.71C56.51 25.26 56.93 24.8 57.2 24.3L57.2 21.9C56.44 21.82 55.7 21.81 54.98 21.86C54.29 21.91 53.68 22.02 53.13 22.19C52.59 22.37 52.16 22.61 51.84 22.93C51.52 23.25 51.36 23.66 51.36 24.15C51.36 24.84 51.56 25.39 51.95 25.78C52.37 26.15 52.94 26.34 53.65 26.34ZM92.91 10.13C92.91 10.77 92.82 11.41 92.65 12.05C92.5 12.7 92.24 13.29 91.87 13.83C91.5 14.35 91.02 14.82 90.43 15.24C89.84 15.63 89.12 15.93 88.28 16.13L88.28 16.35C89.02 16.47 89.73 16.68 90.39 16.98C91.06 17.27 91.64 17.68 92.13 18.2C92.63 18.71 93.01 19.34 93.28 20.08C93.58 20.82 93.72 21.7 93.72 22.71C93.72 24.04 93.44 25.2 92.87 26.19C92.31 27.15 91.54 27.94 90.58 28.56C89.64 29.17 88.57 29.63 87.36 29.93C86.15 30.22 84.91 30.37 83.62 30.37C83.2 30.37 82.66 30.37 81.99 30.37C81.35 30.37 80.65 30.36 79.89 30.33C79.15 30.28 78.38 30.22 77.59 30.15C76.83 30.07 76.12 29.96 75.48 29.82L75.48 4.29C75.95 4.21 76.48 4.14 77.07 4.06C77.69 3.99 78.34 3.93 79.03 3.88C79.73 3.83 80.43 3.79 81.14 3.77C81.88 3.74 82.61 3.73 83.33 3.73C84.54 3.73 85.71 3.83 86.84 4.03C88 4.2 89.02 4.52 89.91 4.99C90.83 5.46 91.55 6.11 92.1 6.95C92.64 7.79 92.91 8.85 92.91 10.13ZM83.66 26.19C84.28 26.19 84.87 26.11 85.44 25.97C86.03 25.82 86.55 25.6 86.99 25.3C87.43 24.98 87.79 24.59 88.06 24.12C88.33 23.65 88.47 23.09 88.47 22.45C88.47 21.64 88.31 21 87.99 20.53C87.67 20.06 87.25 19.7 86.73 19.45C86.21 19.18 85.63 19.01 84.99 18.94C84.35 18.86 83.71 18.83 83.07 18.83L80.37 18.83L80.37 25.97C80.49 26.02 80.69 26.05 80.96 26.08C81.23 26.1 81.51 26.13 81.81 26.15C82.13 26.15 82.45 26.16 82.77 26.19C83.12 26.19 83.41 26.19 83.66 26.19ZM80.37 14.98L81.99 14.98C82.34 14.98 82.73 14.97 83.18 14.94C83.65 14.92 84.03 14.88 84.33 14.83C85.26 14.53 86.06 14.09 86.73 13.5C87.42 12.91 87.77 12.13 87.77 11.17C87.77 10.53 87.64 10 87.4 9.58C87.15 9.16 86.82 8.82 86.4 8.58C86 8.33 85.55 8.16 85.03 8.06C84.51 7.96 83.97 7.91 83.4 7.91C82.76 7.91 82.17 7.92 81.62 7.95C81.08 7.97 80.66 8.01 80.37 8.06L80.37 14.98ZM102.2 4.1L102.2 23.78C102.2 24.65 102.31 25.28 102.53 25.67C102.75 26.07 103.11 26.26 103.6 26.26C103.9 26.26 104.18 26.24 104.45 26.19C104.75 26.14 105.11 26.03 105.53 25.86L106.04 29.63C105.65 29.83 105.05 30.02 104.23 30.22C103.42 30.42 102.58 30.52 101.72 30.52C100.31 30.52 99.24 30.2 98.5 29.56C97.76 28.89 97.39 27.8 97.39 26.3L97.39 4.1L102.2 4.1ZM109.15 16.16L108.01 12.57C108.99 12.13 110.16 11.78 111.52 11.54C112.88 11.27 114.3 11.13 115.78 11.13C117.06 11.13 118.13 11.29 119 11.61C119.86 11.91 120.54 12.34 121.03 12.91C121.55 13.47 121.91 14.15 122.1 14.94C122.33 15.73 122.44 16.62 122.44 17.61C122.44 18.69 122.4 19.79 122.33 20.9C122.25 21.98 122.2 23.06 122.18 24.12C122.18 25.18 122.21 26.21 122.29 27.23C122.36 28.21 122.55 29.15 122.84 30.04L118.92 30.04L118.14 27.48L117.96 27.48C117.47 28.25 116.78 28.91 115.89 29.48C115.02 30.02 113.9 30.3 112.52 30.3C111.66 30.3 110.88 30.17 110.19 29.93C109.5 29.65 108.91 29.28 108.41 28.82C107.92 28.32 107.54 27.76 107.27 27.11C106.99 26.45 106.86 25.71 106.86 24.89C106.86 23.76 107.11 22.81 107.6 22.05C108.12 21.26 108.84 20.63 109.78 20.16C110.74 19.66 111.88 19.33 113.19 19.16C114.52 18.96 116 18.9 117.63 18.97C117.8 17.59 117.7 16.61 117.33 16.01C116.96 15.4 116.13 15.09 114.85 15.09C113.89 15.09 112.87 15.19 111.78 15.39C110.72 15.58 109.84 15.84 109.15 16.16ZM114.11 26.34C115.07 26.34 115.84 26.13 116.41 25.71C116.97 25.26 117.39 24.8 117.66 24.3L117.66 21.9C116.9 21.82 116.16 21.81 115.44 21.86C114.75 21.91 114.14 22.02 113.59 22.19C113.05 22.37 112.62 22.61 112.3 22.93C111.98 23.25 111.82 23.66 111.82 24.15C111.82 24.84 112.01 25.39 112.41 25.78C112.83 26.15 113.4 26.34 114.11 26.34ZM142.6 30L137.79 30L137.79 19.49C137.79 17.99 137.57 16.9 137.13 16.24C136.71 15.57 135.98 15.24 134.94 15.24C134.03 15.24 133.25 15.51 132.61 16.05C131.99 16.57 131.55 17.22 131.28 18.01L131.28 30L126.47 30L126.47 11.5L130.28 11.5L130.84 13.94L130.98 13.94C131.55 13.15 132.3 12.46 133.24 11.87C134.18 11.28 135.39 10.98 136.87 10.98C137.78 10.98 138.59 11.11 139.31 11.35C140.02 11.6 140.63 12.01 141.12 12.57C141.61 13.14 141.98 13.92 142.23 14.9C142.48 15.87 142.6 17.06 142.6 18.49L142.6 30ZM158.62 25.19L159.73 28.85C158.99 29.4 158.09 29.82 157.03 30.11C156 30.38 154.92 30.52 153.81 30.52C152.33 30.52 151.07 30.28 150.04 29.82C149.03 29.35 148.2 28.69 147.56 27.85C146.92 26.99 146.45 25.95 146.15 24.75C145.88 23.54 145.75 22.21 145.75 20.75C145.75 17.62 146.45 15.21 147.86 13.54C149.26 11.83 151.31 10.98 154 10.98C155.35 10.98 156.44 11.09 157.25 11.32C158.09 11.54 158.84 11.82 159.51 12.17L158.36 16.09C157.8 15.82 157.23 15.61 156.66 15.46C156.12 15.31 155.49 15.24 154.77 15.24C153.44 15.24 152.43 15.68 151.74 16.57C151.05 17.43 150.7 18.83 150.7 20.75C150.7 21.54 150.79 22.27 150.96 22.93C151.14 23.6 151.39 24.18 151.74 24.67C152.09 25.17 152.53 25.56 153.07 25.86C153.64 26.13 154.29 26.26 155.03 26.26C155.85 26.26 156.54 26.16 157.11 25.97C157.67 25.75 158.18 25.49 158.62 25.19ZM161.14 20.75C161.14 17.62 161.9 15.21 163.43 13.54C164.96 11.83 167.11 10.98 169.87 10.98C171.35 10.98 172.63 11.22 173.72 11.69C174.8 12.15 175.7 12.82 176.42 13.68C177.13 14.52 177.66 15.55 178.01 16.75C178.38 17.96 178.56 19.29 178.56 20.75C178.56 23.88 177.8 26.3 176.27 28C174.77 29.68 172.63 30.52 169.87 30.52C168.39 30.52 167.11 30.28 166.02 29.82C164.94 29.35 164.02 28.69 163.28 27.85C162.57 26.99 162.03 25.95 161.66 24.75C161.31 23.54 161.14 22.21 161.14 20.75ZM166.1 20.75C166.1 21.56 166.17 22.32 166.32 23.01C166.47 23.7 166.69 24.3 166.98 24.82C167.28 25.34 167.66 25.75 168.13 26.04C168.62 26.31 169.2 26.45 169.87 26.45C171.13 26.45 172.07 25.99 172.68 25.08C173.3 24.17 173.61 22.72 173.61 20.75C173.61 19.05 173.32 17.68 172.76 16.64C172.19 15.58 171.23 15.05 169.87 15.05C168.69 15.05 167.76 15.5 167.09 16.38C166.43 17.27 166.1 18.73 166.1 20.75Z" />
	<path id="Ana Blanco" class=" shp1" d="M185.29 27.1C185.29 26.07 185.62 25.26 186.26 24.68C186.91 24.06 187.76 23.75 188.81 23.75C189.93 23.75 190.81 24.06 191.45 24.68C192.1 25.26 192.42 26.07 192.42 27.1C192.42 28.12 192.1 28.94 191.45 29.56C190.81 30.18 189.93 30.48 188.81 30.48C187.76 30.48 186.91 30.18 186.26 29.56C185.62 28.94 185.29 28.12 185.29 27.1Z" />
</svg>